<svg width="380" height="222" fill="none" xmlns="http://www.w3.org/2000/svg"><path d="M299.514 218.036c-1.943-25.041-21.972-15.387-21.972-15.387-6.726-9.503-16.292-4.374-16.292-4.374v19.761h38.264z" fill="#C5D6E2"/><path d="M262.569 104.393H213.75v113.643h48.819V104.393zm-113.472-1.321H98.958v114.964h50.139V103.072z" fill="#FFE066"/><path d="M213.75 74h-64.653v144.036h64.653V74z" fill="#FC0"/><path d="M191.319 95.143h-21.111v13.214h21.111V95.143zm0 22.464h-21.111v13.214h21.111v-13.214zm0 21.143h-21.111v13.214h21.111V138.75zm0 23.786h-21.111v13.214h21.111v-13.214z" fill="#FFE066"/><path d="M149.097 87.214v130.822" stroke="#18123D" stroke-miterlimit="10" stroke-linejoin="round"/><path d="M120.069 113.643h-9.236v13.214h9.236v-13.214zm15.834 0h-9.236v13.214h9.236v-13.214zm-15.834 25.107h-9.236v13.214h9.236V138.75zm15.834 0h-9.236v13.214h9.236V138.75zm-15.834 26.428h-9.236v13.215h9.236v-13.215zm15.834 0h-9.236v13.215h9.236v-13.215zm-15.834 25.108h-9.236V203.5h9.236v-13.214zm15.834 0h-9.236V203.5h9.236v-13.214zm98.958-76.643h-9.236v13.214h9.236v-13.214zm15.834 0h-9.237v13.214h9.237v-13.214zm-15.834 25.107h-9.236v13.214h9.236V138.75zm15.834 0h-9.237v13.214h9.237V138.75zm-15.834 26.428h-9.236v13.215h9.236v-13.215zm15.834 0h-9.237v13.215h9.237v-13.215zm-15.834 25.108h-9.236V203.5h9.236v-13.214zm15.834 0h-9.237V203.5h9.237v-13.214z" fill="#fff"/><path d="M205.833 187.643h-50.139v9.25h50.139v-9.25z" fill="#FFE066"/><path d="M195.277 218.036v-21.143H166.25v21.143h29.027z" fill="#C5D6E2"/><path d="M139.861 87.214h81.805" stroke="#18123D" stroke-miterlimit="10" stroke-linejoin="round"/><path d="M100.019 146.678c.721.15 3.891 1.644 8.359 8.22 3.603 5.38 6.485 11.806 7.206 16.29 1.441 8.219-.144 16.29-3.891 20.773-2.739 3.288-6.63 4.932-11.674 4.932-8.359 0-14.556-2.391-18.015-6.875-2.45-3.288-3.459-7.771-2.45-11.956 1.153-5.081 3.603-7.173 6.774-9.863 2.162-1.793 4.468-3.886 6.197-6.725 1.297-2.242 2.162-4.633 3.026-7.174 1.442-4.334 2.595-7.024 4.468-7.622z" fill="#C5D6E2"/><path d="M98.958 177.071v40.965" stroke="#000" stroke-miterlimit="10"/><path d="M36.944 218.036h306.111" stroke="#18123D" stroke-miterlimit="10" stroke-linejoin="round"/><path d="M267.413 117.915c-3.797 3.119-4.527 3.119-8.338-.032-10.122-9.443-27.357-21.884-26.842-37.659.186-5.407 2.883-10.591 7.253-13.645 8.183-5.725 18.287-3.053 23.742 3.499 5.455-6.552 15.56-9.256 23.742-3.499 4.371 3.054 7.067 8.238 7.253 13.645.552 15.697-16.685 28.34-26.81 37.691z" fill="#FF3756"/></svg>